<svg fill="#000000" xmlns="http://www.w3.org/2000/svg"  viewBox="0 0 50 50" width="100px" height="100px"><path d="M29.999,12.046v8c0,2.76-2.24,5-5,5c-1.38,0-2.63-0.56-3.54-1.46c-0.9-0.91-1.46-2.16-1.46-3.54v-8	c0-1.12,0.37-2.15,0.99-2.98c0.91-1.23,2.37-2.02,4.01-2.02s3.1,0.79,4.01,2.02C29.629,9.896,29.999,10.926,29.999,12.046z"/><path d="M43.989,9.546c-0.96-1.66-2.51-2.85-4.37-3.35c-1.85-0.49-3.78-0.23-5.43,0.72l-2.19,1.27v11.86c0,3.86-3.14,7-7,7	c-1.86,0-3.62-0.72-4.95-2.04c-1.33-1.34-2.05-3.1-2.05-4.96V8.186l-2.19-1.26c-1.65-0.96-3.58-1.22-5.44-0.73	c-1.85,0.5-3.4,1.69-4.36,3.35c-0.63,1.09-0.96,2.33-0.96,3.58c0,2.55,1.37,4.94,3.59,6.23c5.66,3.27,9.18,9.36,9.18,15.9v1.61	c0,1.92,0.75,3.72,2.1,5.08c1.32,1.32,3.08,2.07,4.94,2.1h0.12c1.82,0,3.57-0.73,4.92-2.06c1.45-1.42,2.28-3.39,2.28-5.39v-1.34	c0-3.27,0.88-6.43,2.47-9.18s3.88-5.09,6.71-6.72c1.66-0.97,2.85-2.52,3.35-4.37C45.199,13.136,44.939,11.206,43.989,9.546z"/></svg>